<svg xmlns="http://www.w3.org/2000/svg" width="29.258" height="29.234" viewBox="0 0 29.258 29.234"><path d="M-970.142-12.092l.625-5.7a12.691,12.691,0,0,1-1.279-.077,1.278,1.278,0,0,1-.781-.373l-2.208-2.208a1.276,1.276,0,0,1-.373-.78,12.757,12.757,0,0,1-.077-1.287l-5.7.625a.629.629,0,0,1-.688-.731c.288-1.75,1.321-5.829,4.873-7.39a8.667,8.667,0,0,1,4.211-.527,20.756,20.756,0,0,1,2.327-2.75c4.789-4.788,13.627-8.121,17.452-7.186a.31.31,0,0,1,.232.239c.921,4.015-2.39,12.656-7.2,17.438a20.733,20.733,0,0,1-2.757,2.327,8.7,8.7,0,0,1-.534,4.2c-1.554,3.55-5.639,4.584-7.39,4.865a.645.645,0,0,1-.108.009A.631.631,0,0,1-970.142-12.092ZM-963-33.235a3,3,0,0,0,0,4.247,3,3,0,0,0,4.247,0,3,3,0,0,0,0-4.247,2.994,2.994,0,0,0-2.124-.881A2.994,2.994,0,0,0-963-33.235Zm-13.824,13.5a3.228,3.228,0,0,1,1.892-.921.235.235,0,0,1,.2.4l-.007.007a2.611,2.611,0,0,0-.555,1.385,1.893,1.893,0,0,0,2.18,2.18,2.679,2.679,0,0,0,1.392-.562.24.24,0,0,1,.408.2,3.213,3.213,0,0,1-.922,1.892c-1.265,1.265-5.97,1.385-5.97,1.385S-978.094-18.47-976.829-19.735Z" transform="translate(980.634 40.628)" fill="#afc8ea"/></svg>